<svg width="100" height="100" viewBox="0 0 100 100" fill="none" xmlns="http://www.w3.org/2000/svg">
<path d="M50 29C63.2548 29 74 24.299 74 18.5C74 12.701 63.2548 8 50 8C36.7452 8 26 12.701 26 18.5C26 24.299 36.7452 29 50 29Z" fill="white" stroke="#2C3E50"/>
<path d="M29 18.5C27 21.9 27.5 24.9 30.5 27.5H69.5C72.5 24.9 73 21.9 71 18.5" fill="white"/>
<path d="M29 18.5C27 21.9 27.5 24.9 30.5 27.5H69.5C72.5 24.9 73 21.9 71 18.5" stroke="#2C3E50"/>
<path d="M71.9 27.5H28.1C27.7686 27.5 27.5 27.7686 27.5 28.1V32.9C27.5 33.2314 27.7686 33.5 28.1 33.5H71.9C72.2314 33.5 72.5 33.2314 72.5 32.9V28.1C72.5 27.7686 72.2314 27.5 71.9 27.5Z" fill="white" stroke="#2C3E50"/>
<path d="M44.4824 34.3574L56.4824 78.3799L56.6543 79.0107H46.6426L46.5264 78.6719L43.6416 70.207H32.3584L29.4736 78.6719L29.3574 79.0107H19.3457L19.5176 78.3799L31.5176 34.3574L31.6182 33.9893H44.3818L44.4824 34.3574ZM31.5156 46.1045L27.0156 63.7139L26.8564 64.3369H37.1436L36.9844 63.7139L32.4844 46.1045H31.5156Z" fill="#E74C3C"/>
<path d="M44.4824 34.3574L44.9648 34.2259L44.9647 34.2256L44.4824 34.3574ZM56.4824 78.3799L56.9648 78.2485L56.9648 78.2484L56.4824 78.3799ZM56.6543 79.0107V79.5107H57.3087L57.1367 78.8793L56.6543 79.0107ZM46.6426 79.0107L46.1696 79.1729L46.2855 79.5107H46.6426V79.0107ZM46.5264 78.6719L46.0531 78.8332L46.0534 78.8341L46.5264 78.6719ZM43.6416 70.207L44.1149 70.0457L43.9994 69.707H43.6416V70.207ZM32.3584 70.207V69.707H32.0006L31.8851 70.0457L32.3584 70.207ZM29.4736 78.6719L29.9466 78.8341L29.9469 78.8332L29.4736 78.6719ZM29.3574 79.0107V79.5107H29.7145L29.8304 79.1729L29.3574 79.0107ZM19.3457 79.0107L18.8633 78.8793L18.6913 79.5107H19.3457V79.0107ZM19.5176 78.3799L19.0352 78.2484L19.0352 78.2485L19.5176 78.3799ZM31.5176 34.3574L31.0353 34.2256L31.0352 34.2259L31.5176 34.3574ZM31.6182 33.9893V33.4893H31.2364L31.1358 33.8575L31.6182 33.9893ZM44.3818 33.9893L44.8642 33.8575L44.7636 33.4893H44.3818V33.9893ZM31.5156 46.1045V45.6045H31.1273L31.0312 45.9807L31.5156 46.1045ZM27.0156 63.7139L26.5312 63.5901L26.5312 63.5901L27.0156 63.7139ZM26.8564 64.3369L26.372 64.2131L26.2126 64.8369H26.8564V64.3369ZM37.1436 64.3369V64.8369H37.7874L37.628 64.2131L37.1436 64.3369ZM36.9844 63.7139L37.4688 63.5901L37.4688 63.5901L36.9844 63.7139ZM32.4844 46.1045L32.9688 45.9807L32.8727 45.6045H32.4844V46.1045ZM44.4824 34.3574L44 34.4889L56 78.5114L56.4824 78.3799L56.9648 78.2484L44.9648 34.2259L44.4824 34.3574ZM56.4824 78.3799L56 78.5113L56.1719 79.1422L56.6543 79.0107L57.1367 78.8793L56.9648 78.2485L56.4824 78.3799ZM56.6543 79.0107V78.5107H46.6426V79.0107V79.5107H56.6543V79.0107ZM46.6426 79.0107L47.1155 78.8485L46.9993 78.5097L46.5264 78.6719L46.0534 78.8341L46.1696 79.1729L46.6426 79.0107ZM46.5264 78.6719L46.9996 78.5106L44.1149 70.0457L43.6416 70.207L43.1683 70.3683L46.0531 78.8332L46.5264 78.6719ZM43.6416 70.207V69.707H32.3584V70.207V70.707H43.6416V70.207ZM32.3584 70.207L31.8851 70.0457L29.0004 78.5106L29.4736 78.6719L29.9469 78.8332L32.8317 70.3683L32.3584 70.207ZM29.4736 78.6719L29.0007 78.5097L28.8845 78.8485L29.3574 79.0107L29.8304 79.1729L29.9466 78.8341L29.4736 78.6719ZM29.3574 79.0107V78.5107H19.3457V79.0107V79.5107H29.3574V79.0107ZM19.3457 79.0107L19.8281 79.1422L20 78.5113L19.5176 78.3799L19.0352 78.2485L18.8633 78.8793L19.3457 79.0107ZM19.5176 78.3799L20 78.5114L32 34.4889L31.5176 34.3574L31.0352 34.2259L19.0352 78.2484L19.5176 78.3799ZM31.5176 34.3574L31.9999 34.4892L32.1005 34.121L31.6182 33.9893L31.1358 33.8575L31.0353 34.2256L31.5176 34.3574ZM31.6182 33.9893V34.4893H44.3818V33.9893V33.4893H31.6182V33.9893ZM44.3818 33.9893L43.8995 34.121L44.0001 34.4892L44.4824 34.3574L44.9647 34.2256L44.8642 33.8575L44.3818 33.9893ZM31.5156 46.1045L31.0312 45.9807L26.5312 63.5901L27.0156 63.7139L27.5001 63.8377L32.0001 46.2283L31.5156 46.1045ZM27.0156 63.7139L26.5312 63.5901L26.372 64.2131L26.8564 64.3369L27.3409 64.4607L27.5001 63.8376L27.0156 63.7139ZM26.8564 64.3369V64.8369H37.1436V64.3369V63.8369H26.8564V64.3369ZM37.1436 64.3369L37.628 64.2131L37.4688 63.5901L36.9844 63.7139L36.4999 63.8376L36.6591 64.4607L37.1436 64.3369ZM36.9844 63.7139L37.4688 63.5901L32.9688 45.9807L32.4844 46.1045L31.9999 46.2283L36.4999 63.8377L36.9844 63.7139ZM32.4844 46.1045V45.6045H31.5156V46.1045V46.6045H32.4844V46.1045Z" fill="#2C3E50"/>
<path d="M82.1 33.5H62.9C61.5745 33.5 60.5 34.5745 60.5 35.9V76.1C60.5 77.4255 61.5745 78.5 62.9 78.5H82.1C83.4255 78.5 84.5 77.4255 84.5 76.1V35.9C84.5 34.5745 83.4255 33.5 82.1 33.5Z" fill="#E74C3C" stroke="#2C3E50"/>
<path d="M86.3 33.5H58.7C58.0373 33.5 57.5 34.0373 57.5 34.7V38.9C57.5 39.5627 58.0373 40.1 58.7 40.1H86.3C86.9627 40.1 87.5 39.5627 87.5 38.9V34.7C87.5 34.0373 86.9627 33.5 86.3 33.5Z" fill="#C0392B" stroke="#2C3E50"/>
<path d="M86.3 71.9H58.7C58.0373 71.9 57.5 72.4373 57.5 73.1V77.3C57.5 77.9627 58.0373 78.5 58.7 78.5H86.3C86.9627 78.5 87.5 77.9627 87.5 77.3V73.1C87.5 72.4373 86.9627 71.9 86.3 71.9Z" fill="#C0392B" stroke="#2C3E50"/>
<path d="M41 18.5C41.4971 18.5 41.9 18.0971 41.9 17.6C41.9 17.1029 41.4971 16.7 41 16.7C40.5029 16.7 40.1 17.1029 40.1 17.6C40.1 18.0971 40.5029 18.5 41 18.5Z" fill="#FFD700"/>
<path d="M41 15.8V19.4M39.2 17.6H42.8" stroke="#FFD700"/>
<g clip-path="url(#clip0_1_2)">
<path d="M53.7578 63.8428C56.1387 63.4722 59.6924 63.2672 64.3408 63.9473C68.9761 64.6253 72.5315 66.0479 75.5361 67.332C78.5061 68.6014 81.0418 69.7911 83.5117 69.8633C85.9327 69.934 87.7989 69.4732 89.0674 68.9883C89.6899 68.7503 90.1675 68.5063 90.4961 68.3174C90.5005 68.3953 90.4979 68.4844 90.4756 68.585C90.3675 69.0716 89.8278 69.9751 87.6758 71.1221C85.5822 72.2378 81.5449 73.0279 76.9746 73.4248C72.4291 73.8195 67.4474 73.8181 63.5244 73.4023C59.0258 72.9263 55.6993 71.9749 53.5049 71.1475C52.4075 70.7337 51.5925 70.3504 51.0557 70.0732C50.7874 69.9347 50.5881 69.8224 50.458 69.7461C50.3931 69.708 50.3451 69.6792 50.3145 69.6602C50.2991 69.6506 50.288 69.643 50.2812 69.6387C50.2781 69.6367 50.2757 69.6356 50.2744 69.6348L50.2734 69.6338L50.0146 69.4639L49.7471 69.6201L49.7451 69.6211C49.7435 69.622 49.741 69.6239 49.7373 69.626C49.7296 69.6304 49.7169 69.6372 49.7002 69.6465C49.6667 69.6652 49.6152 69.6937 49.5459 69.7305C49.4066 69.8044 49.195 69.9127 48.9131 70.0469C48.3491 70.3152 47.5023 70.6873 46.3828 71.0938C44.1437 71.9067 40.8127 72.8585 36.4688 73.4033C32.595 73.8891 27.6187 73.891 23.0635 73.4785C18.4856 73.0639 14.4256 72.2387 12.3301 71.1221H12.3291C10.1747 69.9751 9.63392 69.0717 9.52539 68.585C9.50298 68.4844 9.49961 68.3953 9.50391 68.3174C9.83278 68.5063 10.3111 68.7511 10.9346 68.9893C12.2039 69.4741 14.0711 69.934 16.4932 69.8633C18.9621 69.7912 21.4985 68.6015 24.4688 67.332C27.4733 66.0479 31.0281 64.6253 35.6621 63.9473C40.3092 63.2672 43.8612 63.4722 46.2412 63.8428C47.4315 64.0281 48.3298 64.2551 48.9258 64.4336C49.2235 64.5228 49.446 64.5994 49.5918 64.6533C49.6647 64.6803 49.7185 64.7019 49.7529 64.7158C49.7701 64.7228 49.7825 64.7283 49.79 64.7314L49.7979 64.7344L49.999 64.8223L50.2002 64.7344C50.2015 64.7338 50.2042 64.733 50.208 64.7314C50.2155 64.7283 50.2279 64.7228 50.2451 64.7158C50.2796 64.7019 50.3334 64.6803 50.4062 64.6533C50.5522 64.5994 50.7753 64.5228 51.0732 64.4336C51.6694 64.2551 52.5674 64.028 53.7578 63.8428Z" fill="black" stroke="#2C3E50"/>
</g>
<defs>
<clipPath id="clip0_1_2">
<rect width="82" height="54" fill="white" transform="translate(9 40)"/>
</clipPath>
</defs>
</svg>
